HIERARCHY
ROOT joint_Root
{
	OFFSET 0.0 0.0 0.0
	CHANNELS 6 Xposition Yposition Zposition Zrotation Xrotation Yrotation 
	JOINT Hips
	{
		OFFSET -17.1583 93.1646 452.98
		CHANNELS 6 Xposition Yposition Zposition Zrotation Xrotation Yrotation 
		JOINT Spine
		{
			OFFSET 15.7357 0.0 0.0
			CHANNELS 6 Xposition Yposition Zposition Zrotation Xrotation Yrotation 
			JOINT Chest
			{
				OFFSET 8.98455 -0.406207 0.0
				CHANNELS 6 Xposition Yposition Zposition Zrotation Xrotation Yrotation 
				JOINT Neck
				{
					OFFSET 16.3773 0.0 0.0
					CHANNELS 6 Xposition Yposition Zposition Zrotation Xrotation Yrotation 
					JOINT Head
					{
						OFFSET 6.45672 0.0 0.0
						CHANNELS 6 Xposition Yposition Zposition Zrotation Xrotation Yrotation 
						End Site
						{
							OFFSET 0.0 0.0 0.0
						}
					}
				}
				JOINT Shoulder_L
				{
					OFFSET 12.9942 -0.242716 4.98039
					CHANNELS 6 Xposition Yposition Zposition Zrotation Xrotation Yrotation 
					JOINT UpperArm_L
					{
						OFFSET 5.34809 0.0 0.0
						CHANNELS 6 Xposition Yposition Zposition Zrotation Xrotation Yrotation 
						JOINT LowerArm_L
						{
							OFFSET 24.3286 1.87007e-05 0.0
							CHANNELS 6 Xposition Yposition Zposition Zrotation Xrotation Yrotation 
							JOINT Hand_L
							{
								OFFSET 22.2916 0.0 0.0
								CHANNELS 6 Xposition Yposition Zposition Zrotation Xrotation Yrotation 
								End Site
								{
									OFFSET 0.0 0.0 0.0
								}
							}
						}
					}
				}
				JOINT Shoulder_R
				{
					OFFSET 12.9945 -0.242716 -4.98039
					CHANNELS 6 Xposition Yposition Zposition Zrotation Xrotation Yrotation 
					JOINT UpperArm_R
					{
						OFFSET -5.34813 0.0 0.0
						CHANNELS 6 Xposition Yposition Zposition Zrotation Xrotation Yrotation 
						JOINT LowerArm_R
						{
							OFFSET -24.3289 0.000322201 0.0
							CHANNELS 6 Xposition Yposition Zposition Zrotation Xrotation Yrotation 
							JOINT Hand_R
							{
								OFFSET -22.2915 -0.000108084 0.0
								CHANNELS 6 Xposition Yposition Zposition Zrotation Xrotation Yrotation 
								End Site
								{
									OFFSET 0.0 0.0 0.0
								}
							}
						}
					}
				}
			}
		}
		JOINT UpperLeg_L
		{
			OFFSET -2.19248 -6.46944 0.0
			CHANNELS 6 Xposition Yposition Zposition Zrotation Xrotation Yrotation 
			JOINT LowerLeg_L
			{
				OFFSET 39.0811 0.0 -1.23785e-05
				CHANNELS 6 Xposition Yposition Zposition Zrotation Xrotation Yrotation 
				JOINT Foot_L
				{
					OFFSET 40.9854 0.0 -1.26872e-05
					CHANNELS 6 Xposition Yposition Zposition Zrotation Xrotation Yrotation 
					JOINT Toes_L
					{
						OFFSET 11.7543 0.0 0.0
						CHANNELS 6 Xposition Yposition Zposition Zrotation Xrotation Yrotation 
						End Site
						{
							OFFSET 0.0 0.0 0.0
						}
					}
				}
			}
		}
		JOINT UpperLeg_R
		{
			OFFSET -2.19251 6.46944 0.0
			CHANNELS 6 Xposition Yposition Zposition Zrotation Xrotation Yrotation 
			JOINT LowerLeg_R
			{
				OFFSET -39.0811 -0.00228153 -0.0401928
				CHANNELS 6 Xposition Yposition Zposition Zrotation Xrotation Yrotation 
				JOINT Foot_R
				{
					OFFSET -40.9854 0.0 0.0
					CHANNELS 6 Xposition Yposition Zposition Zrotation Xrotation Yrotation 
					JOINT Toes_R
					{
						OFFSET -11.7543 0.0 0.0
						CHANNELS 6 Xposition Yposition Zposition Zrotation Xrotation Yrotation 
						End Site
						{
							OFFSET 0.0 0.0 0.0
						}
					}
				}
			}
		}
	}
}
MOTION
Frames:	4
Frame Time:	0.0333333
0.000000 0.000000 0.000000 0.000000 0.000000 -0.000000 0.699575 93.414800 -1.456890 87.292200 1.612010 1.293760 15.735700 0.000005 -0.000001 99.635600 85.316200 -98.921300 8.984550 -0.406207 -0.000000 1.460800 1.527860 1.407910 16.377300 -0.000001 -0.000001 0.655349 -0.476408 0.403672 6.456720 -0.000001 -0.000000 -13.709900 -4.368430 4.834100 12.994200 -0.242716 4.980390 -93.666400 10.381900 -70.425900 5.348090 -0.000007 -0.000001 -69.209900 6.971850 -11.302700 24.328600 0.000019 0.000005 2.592810 18.694000 -8.039910 22.291600 -0.000001 0.000005 -6.588070 5.016110 6.980820 12.994500 -0.242716 -4.980390 87.381900 7.610100 -70.950800 -5.348130 -0.000001 -0.000004 -69.281800 25.199300 -5.635200 -24.328900 0.000322 -0.000009 -0.824971 -3.232260 -14.312100 -22.291500 -0.000108 -0.000004 0.533096 5.328790 -0.750066 -2.192480 -6.469440 -0.000000 -173.682000 -10.346100 -2.166240 39.081100 -0.000007 -0.000012 0.011473 -0.039601 16.157000 40.985400 -0.000006 -0.000013 0.809048 15.882900 -68.084100 11.754300 -0.000000 0.000003 -0.001067 0.183984 -9.113440 -2.192510 6.469440 -0.000001 176.482000 12.022000 -177.774000 -39.081100 -0.002282 -0.040193 0.000188 0.021877 8.203730 -40.985400 0.000008 0.000006 -10.657200 10.508400 -61.703800 -11.754300 -0.000006 -0.000006 -0.010391 0.274200 -5.432550
0.000000 0.000000 0.000000 0.000000 0.000000 -0.000000 0.681984 93.476000 -1.594520 87.363800 1.898180 0.592048 15.735700 0.000005 -0.000001 99.174500 85.690200 -98.131800 8.984550 -0.406207 -0.000000 0.732578 1.309870 2.075510 16.377300 -0.000001 -0.000001 -0.214281 -0.298918 0.417840 6.456720 -0.000001 -0.000000 -14.005800 -4.110120 5.294060 12.994200 -0.242716 4.980390 -93.396900 9.502490 -70.224300 5.348090 -0.000007 -0.000001 -71.048800 -5.541810 -13.004800 24.328600 0.000019 0.000005 0.822190 18.220700 -2.627900 22.291600 -0.000001 0.000005 -8.623710 4.859190 10.195800 12.994500 -0.242716 -4.980390 87.371800 7.615430 -70.895100 -5.348130 -0.000001 -0.000004 -68.608700 22.557400 -5.808390 -24.328900 0.000322 -0.000009 -0.740223 -3.440450 -12.131500 -22.291500 -0.000108 -0.000004 1.106490 5.312740 -0.289190 -2.192480 -6.469440 -0.000000 -173.858000 -10.531800 -2.753500 39.081100 -0.000007 -0.000012 0.009576 -0.034135 15.671300 40.985400 -0.000006 -0.000013 0.771238 16.306200 -67.987800 11.754300 -0.000000 0.000003 -0.001152 0.185170 -9.065240 -2.192510 6.469440 -0.000001 176.552000 12.542700 -178.368000 -39.081100 -0.002282 -0.040193 0.002283 0.007717 7.820700 -40.985400 0.000008 0.000006 -10.679300 10.705100 -61.405100 -11.754300 -0.000006 -0.000006 -0.010314 0.273635 -5.455690
0.000000 0.000000 0.000000 0.000000 0.000000 -0.000000 0.701066 93.497100 -1.651990 87.608500 2.147240 0.010101 15.735700 0.000005 -0.000001 94.897500 86.045900 -93.376300 8.984550 -0.406207 -0.000000 0.107587 0.573343 3.039910 16.377300 -0.000001 -0.000001 -1.135570 0.133995 0.558283 6.456720 -0.000001 -0.000000 -14.515800 -3.321040 5.934740 12.994200 -0.242716 4.980390 -93.158300 8.696410 -69.951200 5.348090 -0.000007 -0.000001 -68.867600 -11.475900 -14.245900 24.328600 0.000019 0.000005 -0.000005 18.392200 -0.000001 22.291600 -0.000001 0.000005 -14.289500 4.721290 12.791100 12.994500 -0.242716 -4.980390 87.552100 7.067070 -70.838800 -5.348130 -0.000001 -0.000004 -68.002400 19.822200 -6.224720 -24.328900 0.000322 -0.000009 -0.484265 -2.641980 -10.368100 -22.291500 -0.000108 -0.000004 2.632540 5.294630 0.221105 -2.192480 -6.469440 -0.000000 -174.206000 -10.769400 -3.226430 39.081100 -0.000007 -0.000012 0.009603 -0.035109 15.298200 40.985400 -0.000006 -0.000013 0.782741 16.739400 -67.864900 11.754300 -0.000000 0.000003 -0.001188 0.185676 -9.044650 -2.192510 6.469440 -0.000001 176.474000 12.150100 -178.706000 -39.081100 -0.002282 -0.040193 0.004183 -0.006540 7.317560 -40.985400 0.000008 0.000006 -10.773300 10.048000 -61.421900 -11.754300 -0.000006 -0.000006 -0.010324 0.273708 -5.452700
0.000000 0.000000 0.000000 0.000000 0.000000 -0.000000 0.730680 93.509100 -1.608980 87.775300 1.911570 -0.273384 15.735700 0.000005 -0.000001 91.020000 86.237300 -88.900300 8.984550 -0.406207 -0.000000 -0.238068 -0.014034 4.236960 16.377300 -0.000001 -0.000001 -2.117030 0.432287 1.164720 6.456720 -0.000001 -0.000000 -14.996100 -2.436660 6.679850 12.994200 -0.242716 4.980390 -92.939800 8.005160 -69.758300 5.348090 -0.000007 -0.000001 -64.644200 -17.893900 -14.463100 24.328600 0.000019 0.000005 -0.000178 17.439600 -0.000001 22.291600 -0.000001 0.000005 -13.334400 4.514330 16.327100 12.994500 -0.242716 -4.980390 87.751000 6.390990 -70.566800 -5.348130 -0.000001 -0.000004 -67.269400 16.853600 -6.566980 -24.328900 0.000322 -0.000009 -0.384620 -2.307780 -9.439210 -22.291500 -0.000108 -0.000004 3.877510 5.289610 0.361870 -2.192480 -6.469440 -0.000000 -174.386000 -11.608300 -3.230070 39.081100 -0.000007 -0.000012 0.010226 -0.038323 14.941600 40.985400 -0.000006 -0.000013 0.836120 17.327500 -67.840800 11.754300 -0.000000 0.000003 -0.001036 0.183544 -9.131330 -2.192510 6.469440 -0.000001 176.422000 11.213200 -178.770000 -39.081100 -0.002282 -0.040193 0.004944 -0.013238 6.892090 -40.985400 0.000008 0.000006 -10.798300 9.253800 -61.585800 -11.754300 -0.000006 -0.000006 -0.010964 0.278376 -5.261690
